<svg width="26" height="26" viewBox="0 0 26 26" fill="none" xmlns="http://www.w3.org/2000/svg">
<path d="M12.5088 3.89914C14.1345 3.89913 15.4156 3.89906 16.416 4.02609C17.44 4.15615 18.2656 4.42855 18.9189 5.04562C19.5773 5.6675 19.8727 6.46134 20.0127 7.44504C20.1482 8.39674 20.1485 9.61204 20.1484 11.1413V12.1042C20.1484 12.3902 20.1477 12.5341 20.0693 12.6081C19.9908 12.6817 19.8283 12.6725 19.5039 12.654C18.9025 12.6197 18.2935 12.7585 17.7539 13.07C17.3883 13.2811 17.0871 13.5834 16.8906 13.781L14.0479 16.6247C13.4355 17.2371 13.178 17.9505 13.0439 18.4753C13.0047 18.6289 12.7864 19.7739 12.7393 20.0241C12.7125 20.1661 12.6667 20.4215 12.6543 20.6159C12.6472 20.728 12.6437 20.8805 12.6611 21.0564C12.7005 21.4528 12.7199 21.6509 12.6455 21.7331C12.5711 21.8153 12.4065 21.8151 12.0771 21.8152H11.5371C9.91156 21.8152 8.63128 21.8152 7.63086 21.6882C6.6068 21.5582 5.78134 21.2857 5.12793 20.6687C4.46945 20.0468 4.17325 19.253 4.0332 18.2693C3.89776 17.3176 3.89842 16.1022 3.89844 14.573V11.1413C3.89842 9.61208 3.89776 8.39673 4.0332 7.44504C4.17325 6.46126 4.46945 5.66752 5.12793 5.04562C5.78134 4.4286 6.6068 4.15612 7.63086 4.02609C8.63128 3.8991 9.91157 3.89913 11.5371 3.89914H12.5088ZM8.68945 12.0241C8.22937 12.0243 7.85645 12.397 7.85645 12.8571C7.85645 13.3173 8.22937 13.69 8.68945 13.6902H15.3564C15.8167 13.6902 16.1895 13.3174 16.1895 12.8571C16.1895 12.3969 15.8167 12.0241 15.3564 12.0241H8.68945ZM8.68945 7.85715C8.22947 7.85732 7.85662 8.23018 7.85645 8.69016C7.85645 9.15028 8.22937 9.52396 8.68945 9.52414H15.3564C15.8167 9.52414 16.1895 9.15039 16.1895 8.69016C16.1893 8.23007 15.8166 7.85715 15.3564 7.85715H8.68945Z" fill="#185CBC"/>
<path d="M18.3791 14.1523C18.9646 13.8143 19.686 13.8143 20.2715 14.1523C20.4895 14.2782 20.7345 14.5237 20.9621 14.7518C21.1902 14.9794 21.4357 15.2244 21.5615 15.4424C21.8995 16.0279 21.8995 16.7492 21.5615 17.3347C21.4357 17.5527 21.24 17.7479 21.0119 17.9755L18.2056 20.7819C17.8178 21.1696 17.3495 21.3508 16.9289 21.4582C16.7188 21.5118 15.7402 21.6893 15.7402 21.6893C15.7402 21.6893 15.2301 21.7986 15.019 21.812C14.7866 21.8268 14.4495 21.804 14.1797 21.5342C13.9099 21.2644 13.8871 20.9273 13.9019 20.6948C13.9153 20.4838 14.0245 19.9737 14.0245 19.9737C14.0245 19.9737 14.202 18.995 14.2556 18.785C14.363 18.3643 14.5442 17.8961 14.932 17.5083L17.7383 14.7019C17.9659 14.4738 18.1612 14.2782 18.3791 14.1523Z" fill="#185CBC"/>
</svg>
